<?xml version="1.0" standalone="no"?>
<!DOCTYPE svg PUBLIC "-//W3C//DTD SVG 20010904//EN"
 "http://www.w3.org/TR/2001/REC-SVG-20010904/DTD/svg10.dtd">
<svg version="1.0" xmlns="http://www.w3.org/2000/svg"
 width="128.000000pt" height="39.000000pt" viewBox="0 0 128.000000 39.000000"
 preserveAspectRatio="xMidYMid meet">

<g transform="translate(0.000000,39.000000) scale(0.100000,-0.100000)"
fill="#000000" stroke="none">
<path d="M120 165 c0 -60 3 -75 15 -75 12 0 15 13 15 55 0 45 4 56 21 65 33
18 49 -4 49 -66 0 -30 5 -54 10 -54 14 0 13 123 -2 138 -15 15 -51 15 -66 0
-9 -9 -12 -9 -12 0 0 7 -7 12 -15 12 -12 0 -15 -15 -15 -75z"/>
<path d="M303 233 c-26 -10 -12 -22 21 -16 28 4 36 1 45 -16 11 -19 9 -21 -14
-21 -43 0 -65 -17 -65 -50 0 -24 5 -31 27 -36 14 -4 34 -2 45 5 11 7 18 7 18
1 0 -5 5 -10 10 -10 17 0 12 116 -6 134 -15 15 -55 20 -81 9z m77 -86 c0 -18
-21 -37 -41 -37 -22 0 -33 16 -25 35 7 19 66 20 66 2z"/>
<path d="M440 165 c0 -59 3 -75 15 -75 10 0 15 15 17 56 6 104 68 96 68 -8 0
-26 5 -48 10 -48 6 0 10 25 10 55 0 45 4 56 21 65 33 18 49 -4 49 -66 0 -30 5
-54 10 -54 14 0 13 123 -2 138 -15 15 -51 15 -66 0 -9 -9 -15 -9 -24 0 -15 15
-51 15 -66 0 -9 -9 -12 -9 -12 0 0 7 -7 12 -15 12 -12 0 -15 -15 -15 -75z"/>
<path d="M722 224 c-17 -12 -22 -25 -22 -59 0 -34 5 -47 22 -59 23 -17 55 -20
82 -10 29 11 16 23 -19 17 -37 -6 -65 9 -65 33 0 10 14 14 50 14 46 0 50 2 50
23 0 49 -55 72 -98 41z m66 -16 c21 -21 13 -28 -28 -28 -22 0 -40 4 -40 8 0
14 23 32 40 32 9 0 21 -5 28 -12z"/>
</g>
</svg>
