<?xml version="1.0" standalone="no"?>
<!DOCTYPE svg PUBLIC "-//W3C//DTD SVG 20010904//EN"
 "http://www.w3.org/TR/2001/REC-SVG-20010904/DTD/svg10.dtd">
<svg version="1.0" xmlns="http://www.w3.org/2000/svg"
 width="34.000000pt" height="30.000000pt" viewBox="0 0 34.000000 30.000000"
 preserveAspectRatio="xMidYMid meet">

<g transform="translate(0.000000,30.000000) scale(0.100000,-0.100000)"
fill="#000000" stroke="none">
<path d="M20 85 c0 -37 4 -65 10 -65 6 0 10 20 10 44 0 46 19 72 45 62 11 -4
15 -20 15 -56 0 -28 5 -50 10 -50 7 0 10 22 8 56 -3 66 -23 88 -58 66 -12 -7
-20 -8 -20 -2 0 5 -4 10 -10 10 -6 0 -10 -28 -10 -65z"/>
<path d="M170 130 c-24 -24 -26 -57 -4 -88 20 -30 68 -30 88 0 48 68 -27 145
-84 88z m68 -12 c7 -7 12 -21 12 -33 0 -46 -53 -62 -71 -21 -21 45 26 87 59
54z"/>
</g>
</svg>
